<svg width="183" height="159" viewBox="0 0 183 159" fill="none" xmlns="http://www.w3.org/2000/svg">
<circle cx="92" cy="63" r="63" fill="#FFE145"/>
<path d="M78.3479 70H70.758V45.7012C70.758 43.0579 70.8902 40.0182 71.1545 36.582C71.0223 36.7708 70.5314 37.3467 69.6818 38.3096C68.8511 39.2725 67.218 41 64.7824 43.4922L60.4777 38.791L71.4943 28.5957H78.3479V70ZM108.096 70H100.506V45.7012C100.506 43.0579 100.638 40.0182 100.902 36.582C100.77 36.7708 100.279 37.3467 99.4295 38.3096C98.5988 39.2725 96.9656 41 94.5301 43.4922L90.2254 38.791L101.242 28.5957H108.096V70Z" fill="#3F4255"/>
<path d="M32.1971 152.216C31.1091 152.216 30.1331 152.024 29.2691 151.64C28.4051 151.24 27.7171 150.704 27.2051 150.032C26.7091 149.36 26.4371 148.616 26.3891 147.8H29.7731C29.8371 148.312 30.0851 148.736 30.5171 149.072C30.9651 149.408 31.5171 149.576 32.1731 149.576C32.8131 149.576 33.3091 149.448 33.6611 149.192C34.0291 148.936 34.2131 148.608 34.2131 148.208C34.2131 147.776 33.9891 147.456 33.5411 147.248C33.1091 147.024 32.4131 146.784 31.4531 146.528C30.4611 146.288 29.6451 146.04 29.0051 145.784C28.3811 145.528 27.8371 145.136 27.3731 144.608C26.9251 144.08 26.7011 143.368 26.7011 142.472C26.7011 141.736 26.9091 141.064 27.3251 140.456C27.7571 139.848 28.3651 139.368 29.1491 139.016C29.9491 138.664 30.8851 138.488 31.9571 138.488C33.5411 138.488 34.8051 138.888 35.7491 139.688C36.6931 140.472 37.2131 141.536 37.3091 142.88H34.0931C34.0451 142.352 33.8211 141.936 33.4211 141.632C33.0371 141.312 32.5171 141.152 31.8611 141.152C31.2531 141.152 30.7811 141.264 30.4451 141.488C30.1251 141.712 29.9651 142.024 29.9651 142.424C29.9651 142.872 30.1891 143.216 30.6371 143.456C31.0851 143.68 31.7811 143.912 32.7251 144.152C33.6851 144.392 34.4771 144.64 35.1011 144.896C35.7251 145.152 36.2611 145.552 36.7091 146.096C37.1731 146.624 37.4131 147.328 37.4291 148.208C37.4291 148.976 37.2131 149.664 36.7811 150.272C36.3651 150.88 35.7571 151.36 34.9571 151.712C34.1731 152.048 33.2531 152.216 32.1971 152.216ZM43.5473 140.624C43.9793 140.016 44.5713 139.512 45.3233 139.112C46.0913 138.696 46.9633 138.488 47.9393 138.488C49.0753 138.488 50.0993 138.768 51.0113 139.328C51.9393 139.888 52.6673 140.688 53.1953 141.728C53.7393 142.752 54.0113 143.944 54.0113 145.304C54.0113 146.664 53.7393 147.872 53.1953 148.928C52.6673 149.968 51.9393 150.776 51.0113 151.352C50.0993 151.928 49.0753 152.216 47.9393 152.216C46.9633 152.216 46.0993 152.016 45.3473 151.616C44.6113 151.216 44.0113 150.712 43.5473 150.104V158.336H40.1873V138.704H43.5473V140.624ZM50.5793 145.304C50.5793 144.504 50.4113 143.816 50.0753 143.24C49.7553 142.648 49.3233 142.2 48.7793 141.896C48.2513 141.592 47.6753 141.44 47.0513 141.44C46.4433 141.44 45.8673 141.6 45.3233 141.92C44.7953 142.224 44.3633 142.672 44.0273 143.264C43.7073 143.856 43.5473 144.552 43.5473 145.352C43.5473 146.152 43.7073 146.848 44.0273 147.44C44.3633 148.032 44.7953 148.488 45.3233 148.808C45.8673 149.112 46.4433 149.264 47.0513 149.264C47.6753 149.264 48.2513 149.104 48.7793 148.784C49.3233 148.464 49.7553 148.008 50.0753 147.416C50.4113 146.824 50.5793 146.12 50.5793 145.304ZM68.8129 145.064C68.8129 145.544 68.7809 145.976 68.7169 146.36H58.9969C59.0769 147.32 59.4129 148.072 60.0049 148.616C60.5969 149.16 61.3249 149.432 62.1889 149.432C63.4369 149.432 64.3249 148.896 64.8529 147.824H68.4769C68.0929 149.104 67.3569 150.16 66.2689 150.992C65.1809 151.808 63.8449 152.216 62.2609 152.216C60.9809 152.216 59.8289 151.936 58.8049 151.376C57.7969 150.8 57.0049 149.992 56.4289 148.952C55.8689 147.912 55.5889 146.712 55.5889 145.352C55.5889 143.976 55.8689 142.768 56.4289 141.728C56.9889 140.688 57.7729 139.888 58.7809 139.328C59.7889 138.768 60.9489 138.488 62.2609 138.488C63.5249 138.488 64.6529 138.76 65.6449 139.304C66.6529 139.848 67.4289 140.624 67.9729 141.632C68.5329 142.624 68.8129 143.768 68.8129 145.064ZM65.3329 144.104C65.3169 143.24 65.0049 142.552 64.3969 142.04C63.7889 141.512 63.0449 141.248 62.1649 141.248C61.3329 141.248 60.6289 141.504 60.0529 142.016C59.4929 142.512 59.1489 143.208 59.0209 144.104H65.3329ZM70.4014 145.352C70.4014 143.976 70.6814 142.776 71.2414 141.752C71.8014 140.712 72.5774 139.912 73.5694 139.352C74.5614 138.776 75.6974 138.488 76.9774 138.488C78.6254 138.488 79.9854 138.904 81.0574 139.736C82.1454 140.552 82.8734 141.704 83.2414 143.192H79.6174C79.4254 142.616 79.0974 142.168 78.6334 141.848C78.1854 141.512 77.6254 141.344 76.9534 141.344C75.9934 141.344 75.2334 141.696 74.6734 142.4C74.1134 143.088 73.8334 144.072 73.8334 145.352C73.8334 146.616 74.1134 147.6 74.6734 148.304C75.2334 148.992 75.9934 149.336 76.9534 149.336C78.3134 149.336 79.2014 148.728 79.6174 147.512H83.2414C82.8734 148.952 82.1454 150.096 81.0574 150.944C79.9694 151.792 78.6094 152.216 76.9774 152.216C75.6974 152.216 74.5614 151.936 73.5694 151.376C72.5774 150.8 71.8014 150 71.2414 148.976C70.6814 147.936 70.4014 146.728 70.4014 145.352ZM87.4069 137.12C86.8149 137.12 86.3189 136.936 85.9189 136.568C85.5349 136.184 85.3429 135.712 85.3429 135.152C85.3429 134.592 85.5349 134.128 85.9189 133.76C86.3189 133.376 86.8149 133.184 87.4069 133.184C87.9989 133.184 88.4869 133.376 88.8709 133.76C89.2709 134.128 89.4709 134.592 89.4709 135.152C89.4709 135.712 89.2709 136.184 88.8709 136.568C88.4869 136.936 87.9989 137.12 87.4069 137.12ZM89.0629 138.704V152H85.7029V138.704H89.0629ZM91.5186 145.304C91.5186 143.96 91.7826 142.768 92.3106 141.728C92.8546 140.688 93.5826 139.888 94.4946 139.328C95.4226 138.768 96.4546 138.488 97.5906 138.488C98.5826 138.488 99.4466 138.688 100.183 139.088C100.935 139.488 101.535 139.992 101.983 140.6V138.704H105.367V152H101.983V150.056C101.551 150.68 100.951 151.2 100.183 151.616C99.4306 152.016 98.5586 152.216 97.5666 152.216C96.4466 152.216 95.4226 151.928 94.4946 151.352C93.5826 150.776 92.8546 149.968 92.3106 148.928C91.7826 147.872 91.5186 146.664 91.5186 145.304ZM101.983 145.352C101.983 144.536 101.823 143.84 101.503 143.264C101.183 142.672 100.751 142.224 100.207 141.92C99.6626 141.6 99.0786 141.44 98.4546 141.44C97.8306 141.44 97.2546 141.592 96.7266 141.896C96.1986 142.2 95.7666 142.648 95.4306 143.24C95.1106 143.816 94.9506 144.504 94.9506 145.304C94.9506 146.104 95.1106 146.808 95.4306 147.416C95.7666 148.008 96.1986 148.464 96.7266 148.784C97.2706 149.104 97.8466 149.264 98.4546 149.264C99.0786 149.264 99.6626 149.112 100.207 148.808C100.751 148.488 101.183 148.04 101.503 147.464C101.823 146.872 101.983 146.168 101.983 145.352ZM112.008 134.24V152H108.648V134.24H112.008ZM119.24 141.464V147.896C119.24 148.344 119.344 148.672 119.552 148.88C119.776 149.072 120.144 149.168 120.656 149.168H122.216V152H120.104C117.272 152 115.856 150.624 115.856 147.872V141.464H114.272V138.704H115.856V135.416H119.24V138.704H122.216V141.464H119.24ZM126.337 137.12C125.745 137.12 125.249 136.936 124.849 136.568C124.465 136.184 124.273 135.712 124.273 135.152C124.273 134.592 124.465 134.128 124.849 133.76C125.249 133.376 125.745 133.184 126.337 133.184C126.929 133.184 127.417 133.376 127.801 133.76C128.201 134.128 128.401 134.592 128.401 135.152C128.401 135.712 128.201 136.184 127.801 136.568C127.417 136.936 126.929 137.12 126.337 137.12ZM127.993 138.704V152H124.633V138.704H127.993ZM143.672 145.064C143.672 145.544 143.64 145.976 143.576 146.36H133.856C133.936 147.32 134.272 148.072 134.864 148.616C135.456 149.16 136.184 149.432 137.048 149.432C138.296 149.432 139.184 148.896 139.712 147.824H143.336C142.952 149.104 142.216 150.16 141.128 150.992C140.04 151.808 138.704 152.216 137.12 152.216C135.84 152.216 134.688 151.936 133.664 151.376C132.656 150.8 131.864 149.992 131.288 148.952C130.728 147.912 130.448 146.712 130.448 145.352C130.448 143.976 130.728 142.768 131.288 141.728C131.848 140.688 132.632 139.888 133.64 139.328C134.648 138.768 135.808 138.488 137.12 138.488C138.384 138.488 139.512 138.76 140.504 139.304C141.512 139.848 142.288 140.624 142.832 141.632C143.392 142.624 143.672 143.768 143.672 145.064ZM140.192 144.104C140.176 143.24 139.864 142.552 139.256 142.04C138.648 141.512 137.904 141.248 137.024 141.248C136.192 141.248 135.488 141.504 134.912 142.016C134.352 142.512 134.008 143.208 133.88 144.104H140.192ZM151.213 152.216C150.125 152.216 149.149 152.024 148.285 151.64C147.421 151.24 146.733 150.704 146.221 150.032C145.725 149.36 145.453 148.616 145.405 147.8H148.789C148.853 148.312 149.101 148.736 149.533 149.072C149.981 149.408 150.533 149.576 151.189 149.576C151.829 149.576 152.325 149.448 152.677 149.192C153.045 148.936 153.229 148.608 153.229 148.208C153.229 147.776 153.005 147.456 152.557 147.248C152.125 147.024 151.429 146.784 150.469 146.528C149.477 146.288 148.661 146.04 148.021 145.784C147.397 145.528 146.853 145.136 146.389 144.608C145.941 144.08 145.717 143.368 145.717 142.472C145.717 141.736 145.925 141.064 146.341 140.456C146.773 139.848 147.381 139.368 148.165 139.016C148.965 138.664 149.901 138.488 150.973 138.488C152.557 138.488 153.821 138.888 154.765 139.688C155.709 140.472 156.229 141.536 156.325 142.88H153.109C153.061 142.352 152.837 141.936 152.437 141.632C152.053 141.312 151.533 141.152 150.877 141.152C150.269 141.152 149.797 141.264 149.461 141.488C149.141 141.712 148.981 142.024 148.981 142.424C148.981 142.872 149.205 143.216 149.653 143.456C150.101 143.68 150.797 143.912 151.741 144.152C152.701 144.392 153.493 144.64 154.117 144.896C154.741 145.152 155.277 145.552 155.725 146.096C156.189 146.624 156.429 147.328 156.445 148.208C156.445 148.976 156.229 149.664 155.797 150.272C155.381 150.88 154.773 151.36 153.973 151.712C153.189 152.048 152.269 152.216 151.213 152.216Z" fill="#3F4255"/>
</svg>
