<svg width="185" height="159" viewBox="0 0 185 159" fill="none" xmlns="http://www.w3.org/2000/svg">
<circle cx="93" cy="63" r="63" fill="#FFE145"/>
<path d="M94.2217 70H86.6318V45.7012C86.6318 43.0579 86.764 40.0182 87.0283 36.582C86.8962 36.7708 86.4053 37.3467 85.5557 38.3096C84.7249 39.2725 83.0918 41 80.6562 43.4922L76.3516 38.791L87.3682 28.5957H94.2217V70Z" fill="#3F4255"/>
<path d="M5.20863 141.464V147.896C5.20863 148.344 5.31263 148.672 5.52063 148.88C5.74463 149.072 6.11263 149.168 6.62463 149.168H8.18463V152H6.07263C3.24063 152 1.82463 150.624 1.82463 147.872V141.464H0.240625V138.704H1.82463V135.416H5.20863V138.704H8.18463V141.464H5.20863ZM13.9613 140.768C14.3933 140.064 14.9533 139.512 15.6413 139.112C16.3453 138.712 17.1453 138.512 18.0413 138.512V142.04H17.1533C16.0973 142.04 15.2973 142.288 14.7533 142.784C14.2253 143.28 13.9613 144.144 13.9613 145.376V152H10.6013V138.704H13.9613V140.768ZM19.4404 145.304C19.4404 143.96 19.7044 142.768 20.2324 141.728C20.7764 140.688 21.5044 139.888 22.4164 139.328C23.3444 138.768 24.3764 138.488 25.5124 138.488C26.5044 138.488 27.3684 138.688 28.1044 139.088C28.8564 139.488 29.4564 139.992 29.9044 140.6V138.704H33.2884V152H29.9044V150.056C29.4724 150.68 28.8724 151.2 28.1044 151.616C27.3524 152.016 26.4804 152.216 25.4884 152.216C24.3684 152.216 23.3444 151.928 22.4164 151.352C21.5044 150.776 20.7764 149.968 20.2324 148.928C19.7044 147.872 19.4404 146.664 19.4404 145.304ZM29.9044 145.352C29.9044 144.536 29.7444 143.84 29.4244 143.264C29.1044 142.672 28.6724 142.224 28.1284 141.92C27.5844 141.6 27.0004 141.44 26.3764 141.44C25.7524 141.44 25.1764 141.592 24.6484 141.896C24.1204 142.2 23.6884 142.648 23.3524 143.24C23.0324 143.816 22.8724 144.504 22.8724 145.304C22.8724 146.104 23.0324 146.808 23.3524 147.416C23.6884 148.008 24.1204 148.464 24.6484 148.784C25.1924 149.104 25.7684 149.264 26.3764 149.264C27.0004 149.264 27.5844 149.112 28.1284 148.808C28.6724 148.488 29.1044 148.04 29.4244 147.464C29.7444 146.872 29.9044 146.168 29.9044 145.352ZM43.9381 138.512C45.5221 138.512 46.8021 139.016 47.7781 140.024C48.7541 141.016 49.2421 142.408 49.2421 144.2V152H45.8821V144.656C45.8821 143.6 45.6181 142.792 45.0901 142.232C44.5621 141.656 43.8421 141.368 42.9301 141.368C42.0021 141.368 41.2661 141.656 40.7221 142.232C40.1941 142.792 39.9301 143.6 39.9301 144.656V152H36.5701V138.704H39.9301V140.36C40.3781 139.784 40.9461 139.336 41.6341 139.016C42.3381 138.68 43.1061 138.512 43.9381 138.512ZM57.5253 152.216C56.4373 152.216 55.4613 152.024 54.5973 151.64C53.7333 151.24 53.0453 150.704 52.5333 150.032C52.0373 149.36 51.7653 148.616 51.7173 147.8H55.1013C55.1653 148.312 55.4133 148.736 55.8453 149.072C56.2933 149.408 56.8453 149.576 57.5013 149.576C58.1413 149.576 58.6373 149.448 58.9893 149.192C59.3573 148.936 59.5413 148.608 59.5413 148.208C59.5413 147.776 59.3173 147.456 58.8693 147.248C58.4373 147.024 57.7413 146.784 56.7812 146.528C55.7893 146.288 54.9733 146.04 54.3333 145.784C53.7093 145.528 53.1653 145.136 52.7013 144.608C52.2533 144.08 52.0293 143.368 52.0293 142.472C52.0293 141.736 52.2373 141.064 52.6533 140.456C53.0853 139.848 53.6933 139.368 54.4773 139.016C55.2773 138.664 56.2133 138.488 57.2853 138.488C58.8693 138.488 60.1333 138.888 61.0773 139.688C62.0213 140.472 62.5413 141.536 62.6373 142.88H59.4213C59.3733 142.352 59.1493 141.936 58.7493 141.632C58.3653 141.312 57.8453 141.152 57.1893 141.152C56.5813 141.152 56.1093 141.264 55.7733 141.488C55.4533 141.712 55.2933 142.024 55.2933 142.424C55.2933 142.872 55.5173 143.216 55.9653 143.456C56.4133 143.68 57.1093 143.912 58.0533 144.152C59.0133 144.392 59.8053 144.64 60.4293 144.896C61.0533 145.152 61.5893 145.552 62.0373 146.096C62.5013 146.624 62.7413 147.328 62.7573 148.208C62.7573 148.976 62.5413 149.664 62.1093 150.272C61.6933 150.88 61.0853 151.36 60.2853 151.712C59.5013 152.048 58.5813 152.216 57.5253 152.216ZM68.8754 140.624C69.3074 140.016 69.8994 139.512 70.6514 139.112C71.4194 138.696 72.2914 138.488 73.2674 138.488C74.4034 138.488 75.4274 138.768 76.3394 139.328C77.2674 139.888 77.9954 140.688 78.5234 141.728C79.0674 142.752 79.3394 143.944 79.3394 145.304C79.3394 146.664 79.0674 147.872 78.5234 148.928C77.9954 149.968 77.2674 150.776 76.3394 151.352C75.4274 151.928 74.4034 152.216 73.2674 152.216C72.2914 152.216 71.4274 152.016 70.6754 151.616C69.9394 151.216 69.3394 150.712 68.8754 150.104V158.336H65.5154V138.704H68.8754V140.624ZM75.9074 145.304C75.9074 144.504 75.7394 143.816 75.4034 143.24C75.0834 142.648 74.6514 142.2 74.1074 141.896C73.5794 141.592 73.0034 141.44 72.3794 141.44C71.7714 141.44 71.1954 141.6 70.6514 141.92C70.1234 142.224 69.6914 142.672 69.3554 143.264C69.0354 143.856 68.8754 144.552 68.8754 145.352C68.8754 146.152 69.0354 146.848 69.3554 147.44C69.6914 148.032 70.1234 148.488 70.6514 148.808C71.1954 149.112 71.7714 149.264 72.3794 149.264C73.0034 149.264 73.5794 149.104 74.1074 148.784C74.6514 148.464 75.0834 148.008 75.4034 147.416C75.7394 146.824 75.9074 146.12 75.9074 145.304ZM87.685 152.216C86.405 152.216 85.253 151.936 84.229 151.376C83.205 150.8 82.397 149.992 81.805 148.952C81.229 147.912 80.941 146.712 80.941 145.352C80.941 143.992 81.237 142.792 81.829 141.752C82.437 140.712 83.261 139.912 84.301 139.352C85.341 138.776 86.501 138.488 87.781 138.488C89.061 138.488 90.221 138.776 91.261 139.352C92.301 139.912 93.117 140.712 93.709 141.752C94.317 142.792 94.621 143.992 94.621 145.352C94.621 146.712 94.309 147.912 93.685 148.952C93.077 149.992 92.245 150.8 91.189 151.376C90.149 151.936 88.981 152.216 87.685 152.216ZM87.685 149.288C88.293 149.288 88.861 149.144 89.389 148.856C89.933 148.552 90.365 148.104 90.685 147.512C91.005 146.92 91.165 146.2 91.165 145.352C91.165 144.088 90.829 143.12 90.157 142.448C89.501 141.76 88.693 141.416 87.733 141.416C86.773 141.416 85.965 141.76 85.309 142.448C84.669 143.12 84.349 144.088 84.349 145.352C84.349 146.616 84.661 147.592 85.285 148.28C85.925 148.952 86.725 149.288 87.685 149.288ZM100.446 140.768C100.878 140.064 101.438 139.512 102.126 139.112C102.83 138.712 103.63 138.512 104.526 138.512V142.04H103.638C102.582 142.04 101.782 142.288 101.238 142.784C100.71 143.28 100.446 144.144 100.446 145.376V152H97.0857V138.704H100.446V140.768ZM110.701 141.464V147.896C110.701 148.344 110.805 148.672 111.013 148.88C111.237 149.072 111.605 149.168 112.117 149.168H113.677V152H111.565C108.733 152 107.317 150.624 107.317 147.872V141.464H105.733V138.704H107.317V135.416H110.701V138.704H113.677V141.464H110.701ZM120.948 145.352C120.948 143.976 121.228 142.776 121.788 141.752C122.348 140.712 123.124 139.912 124.116 139.352C125.108 138.776 126.244 138.488 127.524 138.488C129.172 138.488 130.532 138.904 131.604 139.736C132.692 140.552 133.42 141.704 133.788 143.192H130.164C129.972 142.616 129.644 142.168 129.18 141.848C128.732 141.512 128.172 141.344 127.5 141.344C126.54 141.344 125.78 141.696 125.22 142.4C124.66 143.088 124.38 144.072 124.38 145.352C124.38 146.616 124.66 147.6 125.22 148.304C125.78 148.992 126.54 149.336 127.5 149.336C128.86 149.336 129.748 148.728 130.164 147.512H133.788C133.42 148.952 132.692 150.096 131.604 150.944C130.516 151.792 129.156 152.216 127.524 152.216C126.244 152.216 125.108 151.936 124.116 151.376C123.124 150.8 122.348 150 121.788 148.976C121.228 147.936 120.948 146.728 120.948 145.352ZM142.154 152.216C140.874 152.216 139.722 151.936 138.698 151.376C137.674 150.8 136.866 149.992 136.274 148.952C135.698 147.912 135.41 146.712 135.41 145.352C135.41 143.992 135.706 142.792 136.298 141.752C136.906 140.712 137.73 139.912 138.77 139.352C139.81 138.776 140.97 138.488 142.25 138.488C143.53 138.488 144.69 138.776 145.73 139.352C146.77 139.912 147.586 140.712 148.178 141.752C148.786 142.792 149.09 143.992 149.09 145.352C149.09 146.712 148.778 147.912 148.154 148.952C147.546 149.992 146.714 150.8 145.658 151.376C144.618 151.936 143.45 152.216 142.154 152.216ZM142.154 149.288C142.762 149.288 143.33 149.144 143.858 148.856C144.402 148.552 144.834 148.104 145.154 147.512C145.474 146.92 145.634 146.2 145.634 145.352C145.634 144.088 145.298 143.12 144.626 142.448C143.97 141.76 143.162 141.416 142.202 141.416C141.242 141.416 140.434 141.76 139.778 142.448C139.138 143.12 138.818 144.088 138.818 145.352C138.818 146.616 139.13 147.592 139.754 148.28C140.394 148.952 141.194 149.288 142.154 149.288ZM156.642 152.216C155.554 152.216 154.578 152.024 153.714 151.64C152.85 151.24 152.162 150.704 151.65 150.032C151.154 149.36 150.882 148.616 150.834 147.8H154.218C154.282 148.312 154.53 148.736 154.962 149.072C155.41 149.408 155.962 149.576 156.618 149.576C157.258 149.576 157.754 149.448 158.106 149.192C158.474 148.936 158.658 148.608 158.658 148.208C158.658 147.776 158.434 147.456 157.986 147.248C157.554 147.024 156.858 146.784 155.898 146.528C154.906 146.288 154.09 146.04 153.45 145.784C152.826 145.528 152.282 145.136 151.818 144.608C151.37 144.08 151.146 143.368 151.146 142.472C151.146 141.736 151.354 141.064 151.77 140.456C152.202 139.848 152.81 139.368 153.594 139.016C154.394 138.664 155.33 138.488 156.402 138.488C157.986 138.488 159.25 138.888 160.194 139.688C161.138 140.472 161.658 141.536 161.754 142.88H158.538C158.49 142.352 158.266 141.936 157.866 141.632C157.482 141.312 156.962 141.152 156.306 141.152C155.698 141.152 155.226 141.264 154.89 141.488C154.57 141.712 154.41 142.024 154.41 142.424C154.41 142.872 154.634 143.216 155.082 143.456C155.53 143.68 156.226 143.912 157.17 144.152C158.13 144.392 158.922 144.64 159.546 144.896C160.17 145.152 160.706 145.552 161.154 146.096C161.618 146.624 161.858 147.328 161.874 148.208C161.874 148.976 161.658 149.664 161.226 150.272C160.81 150.88 160.202 151.36 159.402 151.712C158.618 152.048 157.698 152.216 156.642 152.216ZM168.545 141.464V147.896C168.545 148.344 168.649 148.672 168.857 148.88C169.081 149.072 169.449 149.168 169.961 149.168H171.521V152H169.409C166.577 152 165.161 150.624 165.161 147.872V141.464H163.577V138.704H165.161V135.416H168.545V138.704H171.521V141.464H168.545ZM179.025 152.216C177.937 152.216 176.961 152.024 176.097 151.64C175.233 151.24 174.545 150.704 174.033 150.032C173.537 149.36 173.265 148.616 173.217 147.8H176.601C176.665 148.312 176.913 148.736 177.345 149.072C177.793 149.408 178.345 149.576 179.001 149.576C179.641 149.576 180.137 149.448 180.489 149.192C180.857 148.936 181.041 148.608 181.041 148.208C181.041 147.776 180.817 147.456 180.369 147.248C179.937 147.024 179.241 146.784 178.281 146.528C177.289 146.288 176.473 146.04 175.833 145.784C175.209 145.528 174.665 145.136 174.201 144.608C173.753 144.08 173.529 143.368 173.529 142.472C173.529 141.736 173.737 141.064 174.153 140.456C174.585 139.848 175.193 139.368 175.977 139.016C176.777 138.664 177.713 138.488 178.785 138.488C180.369 138.488 181.633 138.888 182.577 139.688C183.521 140.472 184.041 141.536 184.137 142.88H180.921C180.873 142.352 180.649 141.936 180.249 141.632C179.865 141.312 179.345 141.152 178.689 141.152C178.081 141.152 177.609 141.264 177.273 141.488C176.953 141.712 176.793 142.024 176.793 142.424C176.793 142.872 177.017 143.216 177.465 143.456C177.913 143.68 178.609 143.912 179.553 144.152C180.513 144.392 181.305 144.64 181.929 144.896C182.553 145.152 183.089 145.552 183.537 146.096C184.001 146.624 184.241 147.328 184.257 148.208C184.257 148.976 184.041 149.664 183.609 150.272C183.193 150.88 182.585 151.36 181.785 151.712C181.001 152.048 180.081 152.216 179.025 152.216Z" fill="#3F4255"/>
</svg>
