<svg width="183" height="153" viewBox="0 0 183 153" fill="none" xmlns="http://www.w3.org/2000/svg">
<circle cx="92" cy="63" r="63" fill="#FFE145"/>
<path d="M93.2217 70H85.6318V45.7012C85.6318 43.0579 85.764 40.0182 86.0283 36.582C85.8962 36.7708 85.4053 37.3467 84.5557 38.3096C83.7249 39.2725 82.0918 41 79.6562 43.4922L75.3516 38.791L86.3682 28.5957H93.2217V70Z" fill="#3F4255"/>
<path d="M55.5358 152L51.0238 146.336V152H47.6638V134.24H51.0238V144.344L55.4878 138.704H59.8558L53.9998 145.376L59.9038 152H55.5358ZM63.3834 137.12C62.7914 137.12 62.2954 136.936 61.8954 136.568C61.5114 136.184 61.3194 135.712 61.3194 135.152C61.3194 134.592 61.5114 134.128 61.8954 133.76C62.2954 133.376 62.7914 133.184 63.3834 133.184C63.9754 133.184 64.4634 133.376 64.8474 133.76C65.2474 134.128 65.4474 134.592 65.4474 135.152C65.4474 135.712 65.2474 136.184 64.8474 136.568C64.4634 136.936 63.9754 137.12 63.3834 137.12ZM65.0394 138.704V152H61.6794V138.704H65.0394ZM72.2711 141.464V147.896C72.2711 148.344 72.3751 148.672 72.5831 148.88C72.8071 149.072 73.1751 149.168 73.6871 149.168H75.2471V152H73.1351C70.3031 152 68.8871 150.624 68.8871 147.872V141.464H67.3031V138.704H68.8871V135.416H72.2711V138.704H75.2471V141.464H72.2711ZM76.7998 145.352C76.7998 143.976 77.0798 142.776 77.6398 141.752C78.1998 140.712 78.9758 139.912 79.9678 139.352C80.9598 138.776 82.0958 138.488 83.3758 138.488C85.0238 138.488 86.3838 138.904 87.4558 139.736C88.5438 140.552 89.2718 141.704 89.6398 143.192H86.0158C85.8238 142.616 85.4958 142.168 85.0318 141.848C84.5838 141.512 84.0238 141.344 83.3518 141.344C82.3918 141.344 81.6318 141.696 81.0718 142.4C80.5118 143.088 80.2318 144.072 80.2318 145.352C80.2318 146.616 80.5118 147.6 81.0718 148.304C81.6318 148.992 82.3918 149.336 83.3518 149.336C84.7118 149.336 85.5998 148.728 86.0158 147.512H89.6398C89.2718 148.952 88.5438 150.096 87.4558 150.944C86.3678 151.792 85.0078 152.216 83.3758 152.216C82.0958 152.216 80.9598 151.936 79.9678 151.376C78.9758 150.8 78.1998 150 77.6398 148.976C77.0798 147.936 76.7998 146.728 76.7998 145.352ZM99.5893 138.512C100.597 138.512 101.493 138.736 102.277 139.184C103.061 139.616 103.669 140.264 104.101 141.128C104.549 141.976 104.773 143 104.773 144.2V152H101.413V144.656C101.413 143.6 101.149 142.792 100.621 142.232C100.093 141.656 99.3733 141.368 98.4613 141.368C97.5333 141.368 96.7973 141.656 96.2533 142.232C95.7253 142.792 95.4613 143.6 95.4613 144.656V152H92.1013V134.24H95.4613V140.36C95.8933 139.784 96.4693 139.336 97.1893 139.016C97.9093 138.68 98.7093 138.512 99.5893 138.512ZM120.329 145.064C120.329 145.544 120.297 145.976 120.233 146.36H110.513C110.593 147.32 110.929 148.072 111.521 148.616C112.113 149.16 112.841 149.432 113.705 149.432C114.953 149.432 115.841 148.896 116.369 147.824H119.993C119.609 149.104 118.873 150.16 117.785 150.992C116.697 151.808 115.361 152.216 113.777 152.216C112.497 152.216 111.345 151.936 110.321 151.376C109.313 150.8 108.521 149.992 107.945 148.952C107.385 147.912 107.104 146.712 107.104 145.352C107.104 143.976 107.385 142.768 107.945 141.728C108.505 140.688 109.289 139.888 110.297 139.328C111.305 138.768 112.465 138.488 113.777 138.488C115.041 138.488 116.169 138.76 117.161 139.304C118.169 139.848 118.945 140.624 119.489 141.632C120.049 142.624 120.329 143.768 120.329 145.064ZM116.849 144.104C116.833 143.24 116.521 142.552 115.913 142.04C115.305 141.512 114.561 141.248 113.681 141.248C112.849 141.248 112.145 141.504 111.569 142.016C111.009 142.512 110.665 143.208 110.537 144.104H116.849ZM130.149 138.512C131.733 138.512 133.013 139.016 133.989 140.024C134.965 141.016 135.453 142.408 135.453 144.2V152H132.093V144.656C132.093 143.6 131.829 142.792 131.301 142.232C130.773 141.656 130.053 141.368 129.141 141.368C128.213 141.368 127.477 141.656 126.933 142.232C126.405 142.792 126.141 143.6 126.141 144.656V152H122.781V138.704H126.141V140.36C126.589 139.784 127.157 139.336 127.845 139.016C128.549 138.68 129.317 138.512 130.149 138.512Z" fill="#3F4255"/>
</svg>
