<svg width="183" height="153" viewBox="0 0 183 153" fill="none" xmlns="http://www.w3.org/2000/svg">
<circle cx="92" cy="63" r="63" fill="#FFE145"/>
<path d="M78.3479 70H70.758V45.7012C70.758 43.0579 70.8902 40.0182 71.1545 36.582C71.0223 36.7708 70.5314 37.3467 69.6818 38.3096C68.8511 39.2725 67.218 41 64.7824 43.4922L60.4777 38.791L71.4943 28.5957H78.3479V70ZM108.096 70H100.506V45.7012C100.506 43.0579 100.638 40.0182 100.902 36.582C100.77 36.7708 100.279 37.3467 99.4295 38.3096C98.5988 39.2725 96.9656 41 94.5301 43.4922L90.2254 38.791L101.242 28.5957H108.096V70Z" fill="#3F4255"/>
<path d="M24.891 140.768C25.323 140.064 25.883 139.512 26.571 139.112C27.275 138.712 28.075 138.512 28.971 138.512V142.04H28.083C27.027 142.04 26.227 142.288 25.683 142.784C25.155 143.28 24.891 144.144 24.891 145.376V152H21.531V138.704H24.891V140.768ZM43.5941 145.064C43.5941 145.544 43.5621 145.976 43.4981 146.36H33.7781C33.8581 147.32 34.1941 148.072 34.7861 148.616C35.3781 149.16 36.1061 149.432 36.9701 149.432C38.2181 149.432 39.1061 148.896 39.6341 147.824H43.2581C42.8741 149.104 42.1381 150.16 41.0501 150.992C39.9621 151.808 38.6261 152.216 37.0421 152.216C35.7621 152.216 34.6101 151.936 33.5861 151.376C32.5781 150.8 31.7861 149.992 31.2101 148.952C30.6501 147.912 30.3701 146.712 30.3701 145.352C30.3701 143.976 30.6501 142.768 31.2101 141.728C31.7701 140.688 32.5541 139.888 33.5621 139.328C34.5701 138.768 35.7301 138.488 37.0421 138.488C38.3061 138.488 39.4341 138.76 40.4261 139.304C41.4341 139.848 42.2101 140.624 42.7541 141.632C43.3141 142.624 43.5941 143.768 43.5941 145.064ZM40.1141 144.104C40.0981 143.24 39.7861 142.552 39.1781 142.04C38.5701 141.512 37.8261 141.248 36.9461 141.248C36.1141 141.248 35.4101 141.504 34.8341 142.016C34.2741 142.512 33.9301 143.208 33.8021 144.104H40.1141ZM51.1346 152.216C50.0466 152.216 49.0706 152.024 48.2066 151.64C47.3426 151.24 46.6546 150.704 46.1426 150.032C45.6466 149.36 45.3746 148.616 45.3266 147.8H48.7106C48.7746 148.312 49.0226 148.736 49.4546 149.072C49.9026 149.408 50.4546 149.576 51.1106 149.576C51.7506 149.576 52.2466 149.448 52.5986 149.192C52.9666 148.936 53.1506 148.608 53.1506 148.208C53.1506 147.776 52.9266 147.456 52.4786 147.248C52.0466 147.024 51.3506 146.784 50.3906 146.528C49.3986 146.288 48.5826 146.04 47.9426 145.784C47.3186 145.528 46.7746 145.136 46.3106 144.608C45.8626 144.08 45.6386 143.368 45.6386 142.472C45.6386 141.736 45.8466 141.064 46.2626 140.456C46.6946 139.848 47.3026 139.368 48.0866 139.016C48.8866 138.664 49.8226 138.488 50.8946 138.488C52.4786 138.488 53.7426 138.888 54.6866 139.688C55.6306 140.472 56.1506 141.536 56.2466 142.88H53.0306C52.9826 142.352 52.7586 141.936 52.3586 141.632C51.9746 141.312 51.4546 141.152 50.7986 141.152C50.1906 141.152 49.7186 141.264 49.3826 141.488C49.0626 141.712 48.9026 142.024 48.9026 142.424C48.9026 142.872 49.1266 143.216 49.5746 143.456C50.0226 143.68 50.7186 143.912 51.6626 144.152C52.6226 144.392 53.4146 144.64 54.0386 144.896C54.6626 145.152 55.1986 145.552 55.6466 146.096C56.1106 146.624 56.3506 147.328 56.3666 148.208C56.3666 148.976 56.1506 149.664 55.7186 150.272C55.3026 150.88 54.6946 151.36 53.8946 151.712C53.1106 152.048 52.1906 152.216 51.1346 152.216ZM63.0368 141.464V147.896C63.0368 148.344 63.1408 148.672 63.3488 148.88C63.5728 149.072 63.9408 149.168 64.4528 149.168H66.0128V152H63.9008C61.0688 152 59.6528 150.624 59.6528 147.872V141.464H58.0688V138.704H59.6528V135.416H63.0368V138.704H66.0128V141.464H63.0368ZM67.5654 145.304C67.5654 143.96 67.8294 142.768 68.3574 141.728C68.9014 140.688 69.6294 139.888 70.5414 139.328C71.4694 138.768 72.5014 138.488 73.6374 138.488C74.6294 138.488 75.4934 138.688 76.2294 139.088C76.9814 139.488 77.5814 139.992 78.0294 140.6V138.704H81.4134V152H78.0294V150.056C77.5974 150.68 76.9974 151.2 76.2294 151.616C75.4774 152.016 74.6054 152.216 73.6134 152.216C72.4934 152.216 71.4694 151.928 70.5414 151.352C69.6294 150.776 68.9014 149.968 68.3574 148.928C67.8294 147.872 67.5654 146.664 67.5654 145.304ZM78.0294 145.352C78.0294 144.536 77.8694 143.84 77.5494 143.264C77.2294 142.672 76.7974 142.224 76.2534 141.92C75.7094 141.6 75.1254 141.44 74.5014 141.44C73.8774 141.44 73.3014 141.592 72.7734 141.896C72.2454 142.2 71.8134 142.648 71.4774 143.24C71.1574 143.816 70.9974 144.504 70.9974 145.304C70.9974 146.104 71.1574 146.808 71.4774 147.416C71.8134 148.008 72.2454 148.464 72.7734 148.784C73.3174 149.104 73.8934 149.264 74.5014 149.264C75.1254 149.264 75.7094 149.112 76.2534 148.808C76.7974 148.488 77.2294 148.04 77.5494 147.464C77.8694 146.872 78.0294 146.168 78.0294 145.352ZM97.2471 138.704V152H93.8631V150.32C93.4311 150.896 92.8631 151.352 92.1591 151.688C91.4711 152.008 90.7191 152.168 89.9031 152.168C88.8631 152.168 87.9431 151.952 87.1431 151.52C86.3431 151.072 85.7111 150.424 85.2471 149.576C84.7991 148.712 84.5751 147.688 84.5751 146.504V138.704H87.9351V146.024C87.9351 147.08 88.1991 147.896 88.7271 148.472C89.2551 149.032 89.9751 149.312 90.8871 149.312C91.8151 149.312 92.5431 149.032 93.0711 148.472C93.5991 147.896 93.8631 147.08 93.8631 146.024V138.704H97.2471ZM103.922 140.768C104.354 140.064 104.914 139.512 105.602 139.112C106.306 138.712 107.106 138.512 108.002 138.512V142.04H107.114C106.058 142.04 105.258 142.288 104.714 142.784C104.186 143.28 103.922 144.144 103.922 145.376V152H100.562V138.704H103.922V140.768ZM109.401 145.304C109.401 143.96 109.665 142.768 110.193 141.728C110.737 140.688 111.465 139.888 112.377 139.328C113.305 138.768 114.337 138.488 115.473 138.488C116.465 138.488 117.329 138.688 118.065 139.088C118.817 139.488 119.417 139.992 119.865 140.6V138.704H123.249V152H119.865V150.056C119.433 150.68 118.833 151.2 118.065 151.616C117.313 152.016 116.441 152.216 115.449 152.216C114.329 152.216 113.305 151.928 112.377 151.352C111.465 150.776 110.737 149.968 110.193 148.928C109.665 147.872 109.401 146.664 109.401 145.304ZM119.865 145.352C119.865 144.536 119.705 143.84 119.385 143.264C119.065 142.672 118.633 142.224 118.089 141.92C117.545 141.6 116.961 141.44 116.337 141.44C115.713 141.44 115.137 141.592 114.609 141.896C114.081 142.2 113.649 142.648 113.313 143.24C112.993 143.816 112.833 144.504 112.833 145.304C112.833 146.104 112.993 146.808 113.313 147.416C113.649 148.008 114.081 148.464 114.609 148.784C115.153 149.104 115.729 149.264 116.337 149.264C116.961 149.264 117.545 149.112 118.089 148.808C118.633 148.488 119.065 148.04 119.385 147.464C119.705 146.872 119.865 146.168 119.865 145.352ZM133.899 138.512C135.483 138.512 136.763 139.016 137.739 140.024C138.715 141.016 139.203 142.408 139.203 144.2V152H135.843V144.656C135.843 143.6 135.579 142.792 135.051 142.232C134.523 141.656 133.803 141.368 132.891 141.368C131.963 141.368 131.227 141.656 130.683 142.232C130.155 142.792 129.891 143.6 129.891 144.656V152H126.531V138.704H129.891V140.36C130.339 139.784 130.907 139.336 131.595 139.016C132.299 138.68 133.067 138.512 133.899 138.512ZM146.31 141.464V147.896C146.31 148.344 146.414 148.672 146.622 148.88C146.846 149.072 147.214 149.168 147.726 149.168H149.286V152H147.174C144.342 152 142.926 150.624 142.926 147.872V141.464H141.342V138.704H142.926V135.416H146.31V138.704H149.286V141.464H146.31ZM156.791 152.216C155.703 152.216 154.727 152.024 153.863 151.64C152.999 151.24 152.311 150.704 151.799 150.032C151.303 149.36 151.031 148.616 150.983 147.8H154.367C154.431 148.312 154.679 148.736 155.111 149.072C155.559 149.408 156.111 149.576 156.767 149.576C157.407 149.576 157.903 149.448 158.255 149.192C158.623 148.936 158.807 148.608 158.807 148.208C158.807 147.776 158.583 147.456 158.135 147.248C157.703 147.024 157.007 146.784 156.047 146.528C155.055 146.288 154.239 146.04 153.599 145.784C152.975 145.528 152.431 145.136 151.967 144.608C151.519 144.08 151.295 143.368 151.295 142.472C151.295 141.736 151.503 141.064 151.919 140.456C152.351 139.848 152.959 139.368 153.743 139.016C154.543 138.664 155.479 138.488 156.551 138.488C158.135 138.488 159.399 138.888 160.343 139.688C161.287 140.472 161.807 141.536 161.903 142.88H158.687C158.639 142.352 158.415 141.936 158.015 141.632C157.631 141.312 157.111 141.152 156.455 141.152C155.847 141.152 155.375 141.264 155.039 141.488C154.719 141.712 154.559 142.024 154.559 142.424C154.559 142.872 154.783 143.216 155.231 143.456C155.679 143.68 156.375 143.912 157.319 144.152C158.279 144.392 159.071 144.64 159.695 144.896C160.319 145.152 160.855 145.552 161.303 146.096C161.767 146.624 162.007 147.328 162.023 148.208C162.023 148.976 161.807 149.664 161.375 150.272C160.959 150.88 160.351 151.36 159.551 151.712C158.767 152.048 157.847 152.216 156.791 152.216Z" fill="#3F4255"/>
</svg>
